<svg xmlns="http://www.w3.org/2000/svg" width="60" height="23" viewBox="0 0 1900 740"><path fill="#fff" d="m643 217h-55c-4.4 0-7.1 3.5-7.1 6.1v167h-102v-167c0-4.3-1.8-6.1-6.2-6.1h-55c-4.4 0-7.1 2.6-7.1 6.1v424c0 4.3 1.8 7 6.2 7h56c3.6 0 6.2-2.6 6.2-7v-203h102v203c0 4.3 2.7 7 7.1 7h55c4.4 0 6.2-3.5 6.2-7v-424c0-3.5-2.7-6.1-6.2-6.1m1250 380c-.9-2.6-1.8-3.5-4.4-3.5-4.5 0-28.4 9.6-63 9.6-67 0-100-63.7-100-165 0-89 27.5-177 74-177 12.4 0 27.5 3.5 51 25.3 2.7 2.6 4.5 3.5 7.1 3.5s5.3-1.8 8-6.1l24-38c1.8-2.7 2.7-5.3 2.7-7.9 0-3.5-3.6-6.1-8.9-8.7-36.4-18.4-61-21.8-83-21.8-83 0-148 98-148 251 0 132 62 208 151 208 37 0 77-17.4 93-28.8 3.5-2.6 4.4-6.1 3.5-9.6l-7.1-29.7m-379-182l107-191c1.8-2.6.9-6.1-2.7-6.1h-52c-15 0-20.4 5.2-25.7 16.6l-79.9 163c-4.4 9.6-8.9 15.7-13.3 18.3v-192c0-3.5-1.8-6.1-5.3-6.1h-57.7c-2.7 0-5.3 2.6-5.3 6.1v425c0 2.6 1.8 6.1 5.3 6.1h57.7c3.6 0 5.3-2.6 5.3-6.1v-219c2.7 1.7 4.5 4.3 6.2 7.9l101 204c5.4 10.5 13.3 13 24.9 13h56.8c3.6 0 4.4-3.5 2.7-6.1l-124-234m-509 185h-10.7c-13.3 0-16.9-5.2-16.9-15.7v-361c0-4.3-1.8-6.1-5.3-6.1h-178c-4.5 0-7.1 2.6-7.1 6.1v31.4c0 106-6.2 242-63 345h-19.5c-5.4 0-7.1 2.7-7.1 7v128c0 4.4 3.6 6.1 6.2 6.1h42.6c9.7 0 13.3-7 13.3-13v-72h190v79c0 3.5 2.6 6.1 6.2 6.1h45c5.3 0 10.6-4.4 10.6-13v-120c0-4.4-2.7-7-7.1-7m-96 0h-129c45-75.9 63-162 69-266 1.8-22.7 2.7-46 2.7-61h56.8v327m277-393c-96 0-139 119-139 248 0 132 60 210 149 210 43.5 0 82-16.6 101-28.8 3.6-1.8 4.5-4.4 3.6-7.9l-7.1-29.7c-.9-3.5-2.7-5.2-7.1-5.2-3.5 0-29 9.6-66 9.6-68 0-100-58-100-135v-20.7s34.6 4.1 55 4.1h130v-36.7c0-135-48.9-208-120-208m-9.8 189c-20.4 0-52 3.5-52 3.5s0-13 1.8-27c7.9-74 26.6-112 57.7-112 28.4 0 46 38 50.6 106 .9 14 .9 29.7.9 29.7h-59"/><path fill="#fff" d="m309 0h-101c-99 0-184 74-184 218 0 86 40.9 150 114 182l-136 241c-4.5 7.9 0 13.9 7.1 13.9h63c5.3 0 8.9-1.8 10.7-6.1l123-237h44v237c0 2.6 2.7 6.1 6.2 6.1h55c5.3 0 7.1-2.6 7.1-7v-639c0-6.1-3.6-8.7-9.8-8.7m-59 356h-37c-59 0-115-41.9-115-147 0-109 53-154 107-154h45v300"/></svg>