<svg xmlns="http://www.w3.org/2000/svg" viewBox="0 0 33.205 33.205"><path fill="#555" d="M16.603 17.908c-3.131 0-5.679-2.548-5.679-5.68s2.547-5.68 5.679-5.68 5.679 2.548 5.679 5.68-2.548 5.68-5.679 5.68zm0-10.359c-2.58 0-4.679 2.099-4.679 4.68s2.099 4.68 4.679 4.68 4.679-2.099 4.679-4.68-2.099-4.68-4.679-4.68z"/><path fill="#555" d="M16.603 33.205a.497.497 0 0 1-.383-.179c-.484-.577-11.844-14.215-11.844-20.797C4.376 5.486 9.861 0 16.603 0S28.83 5.486 28.83 12.229c0 6.583-11.36 20.22-11.843 20.798a.505.505 0 0 1-.384.178zm0-32.205C10.412 1 5.376 6.037 5.376 12.229c0 5.571 9.216 17.215 11.227 19.688 2.01-2.474 11.227-14.118 11.227-19.688C27.829 6.037 22.793 1 16.603 1z"/></svg>