<svg xmlns="http://www.w3.org/2000/svg" viewBox="0 0 379.802 379.802"><path fill="#555" d="M379.327 337.307l-25.658-68.74V161.591h-.001a7.497 7.497 0 0 0-3.119-5.988L181.353 33.878c-.01-.006-.239-.165-.289-.196-2.532-1.731-5.977-1.798-8.61.097L3.12 155.602a7.495 7.495 0 0 0-3.119 5.988 7.494 7.494 0 0 0 2.959 6.069l85.921 65.353v25.539c0 26.419 45.277 40.674 87.878 40.674 42.674 0 88.028-14.255 88.028-40.674v-25.539l73.882-56.195v91.749l-25.66 68.741a7.5 7.5 0 0 0 4.403 9.649c.864.323 1.75.476 2.622.476a7.503 7.503 0 0 0 7.027-4.879l11.607-31.096v28.473a7.5 7.5 0 0 0 7.5 7.5 7.5 7.5 0 0 0 7.5-7.5v-28.469l11.605 31.092a7.5 7.5 0 0 0 7.027 4.879c.871 0 1.758-.153 2.622-.476a7.5 7.5 0 0 0 4.405-9.649zm-129.54-78.756c0 10.468-28.449 25.674-73.028 25.674-45.152 0-72.878-14.953-72.878-25.674v-12.52c7.912-18.672 38.931-32.615 73.028-32.615 34.044 0 65 13.942 72.878 32.611v12.524zm0-36.583c-16.553-14.347-43.563-23.552-72.878-23.552-29.375 0-56.446 9.218-73.028 23.581v-17.485c0-22.895 33.443-42.238 73.028-42.238 39.504 0 72.878 19.343 72.878 42.238v17.456zm15-7.801v-9.654c0-15.979-9.623-30.735-27.096-41.548-16.352-10.118-37.938-15.69-60.782-15.69-22.852 0-44.463 5.571-60.851 15.687-17.526 10.817-27.178 25.574-27.178 41.552v9.654l-68.771-52.309L176.835 49.104 333.56 161.858l-68.773 52.309z"/></svg>