<svg xmlns="http://www.w3.org/2000/svg" viewBox="0 0 511.147 511.147"><path d="M506.027 147.2c0-1.707-5.12-39.253-21.333-57.173-19.627-21.333-40.96-23.893-52.053-24.747h-3.413c-69.12-5.12-172.373-5.973-174.08-5.973-.853 0-104.96.853-173.227 7.68h-2.56C67.413 67.84 46.08 70.4 27.307 91.733 10.24 109.653 5.12 148.053 5.12 149.76c0 0-5.12 43.52-5.12 87.04v40.107c0 42.667 5.12 86.187 5.12 87.04 0 1.707 5.12 39.253 21.333 57.173 17.92 20.48 39.253 23.04 52.907 24.747 2.56 0 4.267 0 6.827.853 39.253 3.413 163.84 5.12 168.96 5.12.853 0 104.96 0 174.08-7.68h2.56c11.947-.853 33.28-3.413 52.053-24.747 17.067-17.92 22.187-56.32 22.187-58.027 0 0 5.12-43.52 5.12-87.04V234.24c0-42.667-5.12-86.187-5.12-87.04zM494.08 276.053c0 42.667-5.12 85.333-5.12 85.333-1.707 9.387-6.827 36.693-17.92 48.64-14.507 17.067-31.573 18.773-40.96 19.627h-2.56c-68.267 5.12-171.52 5.12-172.373 5.12s-128.853-1.707-166.4-5.973c-2.56 0-5.12-.853-7.68-.853-11.947-.853-29.013-3.413-42.667-18.773-10.24-11.093-16.213-38.4-17.067-47.787 0-.853-5.12-43.52-5.12-85.333v-40.107c0-42.667 5.12-85.333 5.12-85.333.853-9.387 6.827-36.693 17.067-48.64C53.76 84.907 69.973 83.2 80.213 82.347h2.56c68.267-5.12 171.52-5.973 172.373-5.973s104.107.853 172.373 5.973h3.413c9.387.853 26.453 2.56 40.96 19.627 10.24 11.947 15.36 39.253 17.067 48.64.853 1.707 5.12 44.373 5.12 85.333v40.106z"/><path d="M361.813 256.427l-162.133-94.72c-2.56-1.707-5.973-1.707-8.533 0s-4.267 4.267-4.267 7.68V354.56c0 3.413 1.707 5.973 4.267 7.68 1.707.853 2.56.853 4.267.853s2.56 0 4.267-.853l162.133-90.453c2.56-1.707 4.267-4.267 4.267-7.68s-1.708-5.974-4.268-7.68zm-157.866 83.626v-156.16l136.533 80.213-136.533 75.947z"/></svg>